# xmcd
#
# Track frame offsets:
#	150
#	14275
#	35977
#	42946
#	57218
#	88261
#	103535
#	124535
#	151800
#	173972
#	202559
#	219684
#	241316
#	265301
#	283859
#	300120
#
# Disc length: 4169 seconds
#
# Revision: 1
# Processed by: cddbd v1.5.2PL0 Copyright (c) Steve Scherf et al.
# Submitted via: audiograbber 1.83.01
#
DISCID=d5104710
DTITLE=Out of the blue - Good reasons
DYEAR=2008
DGENRE=Blues
TTITLE0=See the changes
TTITLE1=Boots of spanish leather
TTITLE2=Bessie Bell and Mary Gray
TTITLE3=Freight train boogie
TTITLE4=Ye jacobites by name
TTITLE5=Good reasons
TTITLE6=Magician
TTITLE7=Song for Ireland
TTITLE8=Shape of my heart
TTITLE9=Lakes of Pontchartrain
TTITLE10=Southbound
TTITLE11=All along the watchtower
TTITLE12=Long after you ´re gone
TTITLE13=The nightingale song
TTITLE14=You ain´t going nowhere
TTITLE15=Three ravens
EXTD=
EXTT0=
EXTT1=
EXTT2=
EXTT3=
EXTT4=
EXTT5=
EXTT6=
EXTT7=
EXTT8=
EXTT9=
EXTT10=
EXTT11=
EXTT12=
EXTT13=
EXTT14=
EXTT15=
PLAYORDER=
